<svg id="SvgjsSvg277258" width="22" height="22" xmlns="http://www.w3.org/2000/svg" version="1.1" xmlns:xlink="http://www.w3.org/1999/xlink" xmlns:svgjs="http://svgjs.com/svgjs" viewBox="0.0001220703125 0 21.999755859375 22" fill="#c7b299" opacity="1"><defs id="SvgjsDefs277259"></defs><svg version="1.1" xmlns="http://www.w3.org/2000/svg" xmlns:xlink="http://www.w3.org/1999/xlink" width="22" height="22" viewBox="1.00134 1.00056 20.9968 20.997"><g><path fill="#c7b299" stroke="none" paint-order="stroke fill markers" fill-rule="evenodd" d=" M 11.499687194824219 1.000562071800232 C 5.701652526855469 1.000562071800232 1.0013351440429688 5.700899720191956 1.0013351440429688 11.49925684928894 C 1.0013351440429688 17.297613978385925 5.701652526855469 21.997536182403564 11.499687194824219 21.997536182403564 C 17.29852294921875 21.997536182403564 21.998153686523438 17.297613978385925 21.998153686523438 11.49925684928894 C 21.998153686523438 5.700899720191956 17.29852294921875 1.000562071800232 11.499687194824219 1.000562071800232 Z M 14.788719177246094 11.996543765068054 C 14.788719177246094 11.996543765068054 10.249534606933594 16.535273551940918 10.249534606933594 16.535273551940918 C 9.976936340332031 16.808220505714417 9.533363342285156 16.808220505714417 9.259963989257812 16.535273551940918 C 8.98736572265625 16.26149570941925 8.98736572265625 15.818216562271118 9.259963989257812 15.54526960849762 C 9.259963989257812 15.54526960849762 13.30682373046875 11.49925684928894 13.30682373046875 11.49925684928894 C 13.30682373046875 11.49925684928894 9.259963989257812 7.451997756958008 9.259963989257812 7.451997756958008 C 8.98736572265625 7.179050803184509 8.98736572265625 6.735771656036377 9.259963989257812 6.462824702262878 C 9.533363342285156 6.189462304115295 9.976936340332031 6.189462304115295 10.249534606933594 6.462824702262878 C 10.249534606933594 6.462824702262878 14.788719177246094 11.002385377883911 14.788719177246094 11.002385377883911 C 14.926734924316406 11.139482021331787 14.995170593261719 11.320200324058533 14.993797302246094 11.49925684928894 C 14.993797302246094 11.679559707641602 14.926734924316406 11.85861623287201 14.788719177246094 11.996543765068054 Z"></path></g></svg></svg>